name C:\Users\u0150099\Documents\master_thesis\3dpredictsim\Results\debug\Fal_s1_mtp_sc_MTPm_k1_d01_ig21.mot
datacolumns 126
datarows 4
range 0.52084903 0.55209997
endheader
time	pelvis_tilt	pelvis_list	pelvis_rotation	pelvis_tx	pelvis_ty	pelvis_tz	hip_flexion_l	hip_adduction_l	hip_rotation_l	hip_flexion_r	hip_adduction_r	hip_rotation_r	knee_angle_l	knee_angle_r	ankle_angle_l	ankle_angle_r	subtalar_angle_l	subtalar_angle_r	mtj_angle_l	mtj_angle_r	mtp_angle_l	mtp_angle_r	lumbar_extension	lumbar_bending	lumbar_rotation	arm_flex_l	arm_add_l	arm_rot_l	arm_flex_r	arm_add_r	arm_rot_r	elbow_flex_l	elbow_flex_r	glut_med1_l/activation	glut_med2_l/activation	glut_med3_l/activation	glut_min1_l/activation	glut_min2_l/activation	glut_min3_l/activation	semimem_l/activation	semiten_l/activation	bifemlh_l/activation	bifemsh_l/activation	sar_l/activation	add_long_l/activation	add_brev_l/activation	add_mag1_l/activation	add_mag2_l/activation	add_mag3_l/activation	tfl_l/activation	pect_l/activation	grac_l/activation	glut_max1_l/activation	glut_max2_l/activation	glut_max3_l/activation	iliacus_l/activation	psoas_l/activation	quad_fem_l/activation	gem_l/activation	peri_l/activation	rect_fem_l/activation	vas_med_l/activation	vas_int_l/activation	vas_lat_l/activation	med_gas_l/activation	lat_gas_l/activation	soleus_l/activation	tib_post_l/activation	flex_dig_l/activation	flex_hal_l/activation	tib_ant_l/activation	per_brev_l/activation	per_long_l/activation	per_tert_l/activation	ext_dig_l/activation	ext_hal_l/activation	ercspn_l/activation	intobl_l/activation	extobl_l/activation	glut_med1_r/activation	glut_med2_r/activation	glut_med3_r/activation	glut_min1_r/activation	glut_min2_r/activation	glut_min3_r/activation	semimem_r/activation	semiten_r/activation	bifemlh_r/activation	bifemsh_r/activation	sar_r/activation	add_long_r/activation	add_brev_r/activation	add_mag1_r/activation	add_mag2_r/activation	add_mag3_r/activation	tfl_r/activation	pect_r/activation	grac_r/activation	glut_max1_r/activation	glut_max2_r/activation	glut_max3_r/activation	iliacus_r/activation	psoas_r/activation	quad_fem_r/activation	gem_r/activation	peri_r/activation	rect_fem_r/activation	vas_med_r/activation	vas_int_r/activation	vas_lat_r/activation	med_gas_r/activation	lat_gas_r/activation	soleus_r/activation	tib_post_r/activation	flex_dig_r/activation	flex_hal_r/activation	tib_ant_r/activation	per_brev_r/activation	per_long_r/activation	per_tert_r/activation	ext_dig_r/activation	ext_hal_r/activation	ercspn_r/activation	intobl_r/activation	extobl_r/activation	
          0.52084903	         -2.92995572	          1.63315887	         -3.00602030	          0.69272921	          0.91680536	          0.00328994	         28.37395951	          3.59346003	         -2.88538039	        -18.22338370	          1.00897105	          5.77667859	         -9.67781349	         -2.86169475	          2.42562864	         -3.88325415	         -4.17032098	          3.94804441	         46.86491475	         58.86914880	         -3.97319470	         -0.79493821	          1.82185851	         -5.50807107	        -13.48302482	          4.04296503	          4.41088298	        -13.74503704	         19.38108921	         28.19457855	         33.68232714	         86.51662706	         86.51662706	          0.05000026	          0.05000066	          0.05000050	          0.05868118	          0.05000283	          0.05000085	          0.21546804	          0.05561612	          0.34774003	          0.05000045	          0.05000087	          0.15859417	          0.17638701	          0.17345679	          0.17089135	          0.13522264	          0.05000027	          0.06838384	          0.08551484	          0.05000097	          0.06607236	          0.10577731	          0.05000055	          0.05000050	          0.14396176	          0.05000802	          0.05000206	          0.05000109	          0.07882231	          0.08418711	          0.06503929	          0.05436819	          0.05000066	          0.06456713	          0.05000389	          0.05000058	          0.05000215	          0.41868411	          0.26424315	          0.16427172	          0.25917122	          0.40375420	          0.40107755	          0.08270500	          0.08267356	          0.10486693	          0.30237125	          0.09485812	          0.07514432	          0.45522275	          0.22322778	          0.10558891	          0.05000091	          0.05000024	          0.05000017	          0.08029026	          0.12095847	          0.05000034	          0.05000016	          0.05000027	          0.05000076	          0.05000040	          0.65128934	          0.05000148	          0.05000103	          0.05000451	          0.05000174	          0.05000089	          0.47174324	          0.79566089	          0.05000041	          0.05022768	          0.05868099	          0.27266003	          0.05000032	          0.05000031	          0.05000033	          0.30836727	          0.47501250	          0.26735620	          0.37197817	          0.48482577	          0.54599226	          0.05000006	          0.05000028	          0.05855962	          0.05000021	          0.05000006	          0.05000010	          0.05000003	          0.05000001	          0.05000002	
          0.53126601	         -2.92729745	          1.79202179	         -3.25606100	          0.70902161	          0.91567581	          0.00296456	         27.84248121	          4.05827226	         -2.81615073	        -18.06431657	          0.67979527	          5.79675444	         -9.15666454	         -4.82646136	          2.09830860	         -4.48744404	         -4.34568705	          4.71187437	         47.24508326	         58.62193614	         -3.80864223	         -1.04764932	          1.93280479	         -6.11786671	        -13.45358025	          3.47391860	          4.05090809	        -13.70735016	         19.34045310	         27.59480528	         34.85462990	         86.51662706	         86.51662706	          0.05868099	          0.05000433	          0.05000060	          0.05000300	          0.05000281	          0.05000679	          0.20786344	          0.05000229	          0.32642244	          0.05000007	          0.05000027	          0.13513353	          0.25315389	          0.16266594	          0.20308413	          0.15566195	          0.05868038	          0.05830720	          0.07286573	          0.05001210	          0.10139104	          0.12236853	          0.05000016	          0.05000012	          0.23740587	          0.05000070	          0.05000040	          0.05000037	          0.17725396	          0.18014483	          0.15150929	          0.05000006	          0.05000010	          0.05501557	          0.05000020	          0.05000067	          0.05000046	          0.47556846	          0.24242489	          0.14928018	          0.45971758	          0.44571666	          0.43926154	          0.07047023	          0.07044344	          0.08935372	          0.28521684	          0.08082551	          0.06402803	          0.38788074	          0.19020513	          0.08996887	          0.05000104	          0.05000024	          0.05000016	          0.06841272	          0.10306484	          0.13131377	          0.05000060	          0.05000051	          0.05000168	          0.05000087	          0.58846360	          0.05000425	          0.05000068	          0.05000279	          0.05000173	          0.05000136	          0.40195700	          0.75889241	          0.05000017	          0.05000032	          0.05000020	          0.26088785	          0.06201173	          0.05643679	          0.05001413	          0.26274965	          0.40474275	          0.25368589	          0.36800839	          0.43972625	          0.55791166	          0.05000001	          0.05868060	          0.05081478	          0.05000013	          0.05000003	          0.05000013	          0.05000002	          0.05000002	          0.05000003	
          0.54168299	         -2.92116948	          1.95522056	         -3.49452264	          0.72562589	          0.91461145	          0.00261714	         27.25001925	          4.50396167	         -2.70882165	        -17.76625865	          0.34666870	          5.80800758	         -9.17192591	         -7.01873164	          1.61222795	         -5.30118509	         -4.53059380	          5.52229634	         47.67010166	         58.22997108	         -3.62198200	         -1.30567076	          2.03579118	         -6.75452696	        -13.45279533	          3.13360515	          3.59033547	        -13.65799554	         19.15424752	         26.99644555	         36.09016823	         86.51662706	         86.51662706	          0.05000017	          0.05000013	          0.13624530	          0.05000011	          0.05000013	          0.05000015	          0.17711373	          0.05000099	          0.27978865	          0.05868054	          0.05000157	          0.11514306	          0.27762126	          0.43762385	          0.31492530	          0.14737891	          0.05000008	          0.05000483	          0.17356019	          0.05868086	          0.13647862	          0.18592247	          0.05000020	          0.05000083	          0.54994998	          0.16900819	          0.11081302	          0.06886877	          0.15103297	          0.16748290	          0.12909666	          0.05000001	          0.05000003	          0.05000000	          0.05744757	          0.05000008	          0.05000016	          0.51826891	          0.26476815	          0.17340027	          0.41645173	          0.45965220	          0.38346671	          0.06004538	          0.06002255	          0.07613539	          0.24302408	          0.06886879	          0.05455622	          0.33050069	          0.16206760	          0.07665955	          0.05000374	          0.05000031	          0.05000025	          0.05829228	          0.08781825	          0.18606724	          0.19507404	          0.05019811	          0.05000611	          0.06796702	          0.63108202	          0.07575516	          0.05000114	          0.05000167	          0.05000119	          0.05000158	          0.34249441	          0.68793071	          0.05000016	          0.05000131	          0.05868061	          0.27716782	          0.13058697	          0.15333527	          0.12668573	          0.22388037	          0.34486805	          0.21615744	          0.33501270	          0.37467660	          0.47538160	          0.05000006	          0.05000003	          0.05000001	          0.05000007	          0.05000002	          0.07462172	          0.06840907	          0.06886883	          0.05000003	
          0.55209997	         -2.91197715	          2.13322454	         -3.72101331	          0.74247232	          0.91361815	          0.00228670	         26.58843672	          4.85852919	         -2.52313699	        -17.34798401	          0.00534763	          5.78911234	         -9.68351580	         -9.37586239	          1.03117247	         -6.39075644	         -4.73318428	          6.32799009	         48.10831326	         57.70252156	         -3.41844030	         -1.57853889	          2.12802941	         -7.40469690	        -13.48376854	          2.99815693	          3.04610589	        -13.60118657	         18.88723766	         26.39232933	         37.38444144	         86.51662706	         86.51662706	          0.37554959	          0.05000009	          0.27106457	          0.05000021	          0.05000021	          0.05000026	          0.16756175	          0.05000016	          0.23839901	          0.05000004	          0.05000023	          0.09810971	          0.34179369	          0.37288511	          0.27562009	          0.20810232	          0.05000031	          0.06887412	          0.14788558	          0.05000017	          0.17863674	          0.19421010	          0.05000013	          0.05000007	          0.46859437	          0.14400639	          0.12294965	          0.05868083	          0.15986654	          0.17205091	          0.12934273	          0.06675207	          0.05868187	          0.06350430	          0.05000003	          0.14281569	          0.05031714	          0.53009969	          0.29090971	          0.14774875	          0.65561412	          0.47034281	          0.32673941	          0.05116273	          0.05114335	          0.06487249	          0.34977246	          0.05868086	          0.05000006	          0.28161118	          0.13809253	          0.06531912	          0.05000112	          0.05000040	          0.05000033	          0.05000008	          0.07482715	          0.20691509	          0.34312562	          0.05867853	          0.05268587	          0.05868204	          0.63319517	          0.09345993	          0.05000087	          0.05000321	          0.05000231	          0.05000279	          0.29182827	          0.62653753	          0.05000022	          0.05000030	          0.05000004	          0.23616563	          0.11126934	          0.13065234	          0.10794515	          0.19076112	          0.29385077	          0.18418067	          0.28545339	          0.31924973	          0.40505723	          0.05000001	          0.05000013	          0.05731213	          0.05000005	          0.05000001	          0.08164531	          0.06359463	          0.05868088	          0.05000038	
